<svg xmlns="http://www.w3.org/2000/svg" xmlns:xlink="http://www.w3.org/1999/xlink" x="0" y="0" version="1.1" viewBox="0 0 74.1 81.3" xml:space="preserve" style="enable-background:new 0 0 74.1 81.3"><style type="text/css">.st0{display:none}.st1{display:inline;fill:url(#SVGID_1_)}.st2{fill:#fff}.st3{fill:none;stroke:#fff;stroke-width:7;stroke-miterlimit:10}</style><g id="Layer_5" class="st0"><linearGradient id="SVGID_1_" x1="-8.286" x2="81.547" y1="-5.332" y2="84.168" gradientUnits="userSpaceOnUse"><stop offset="0" style="stop-color:#fba32f"/><stop offset="1" style="stop-color:#f88c29"/></linearGradient><path d="M78.5,88.3H-3.6c-3.9,0-7-3.2-7-7V-0.8c0-3.9,3.2-7,7-7h82.2c3.8,0,7,3.2,7,7v82.2 C85.5,85.2,82.4,88.3,78.5,88.3z" class="st1"/></g><g id="Layer_2"><polygon points="0 81.3 0 0 26 0 41.6 30 31.1 36.5 32.4 43.8 14.6 47.6 27.9 56.2 26 75" class="st2"/></g><g id="Layer_3"><path d="M47.2,59.7c5.9-4.6,9.8-11.9,9.8-20c0-7.8-3.5-14.8-9-19.4" class="st3"/><path d="M54.2,71.1c10-7.1,16.3-18.2,16.3-30.6c0-11.9-5.9-22.6-15.1-29.7" class="st3"/></g></svg>